<svg width="453" height="452" viewBox="0 0 453 452" fill="none" xmlns="http://www.w3.org/2000/svg">
<path d="M243.537 16.3476C237.979 13.8121 231.94 12.5 225.831 12.5C219.721 12.5 213.683 13.8121 208.124 16.3476L25.2974 99.5476C21.5117 101.217 18.2932 103.951 16.0336 107.417C13.7741 110.882 12.571 114.93 12.571 119.068C12.571 123.205 13.7741 127.253 16.0336 130.719C18.2932 134.184 21.5117 136.918 25.2974 138.588L208.337 222.001C213.896 224.536 219.934 225.849 226.044 225.849C232.154 225.849 238.192 224.536 243.751 222.001L426.791 138.801C430.576 137.132 433.795 134.398 436.054 130.932C438.314 127.466 439.517 123.418 439.517 119.281C439.517 115.144 438.314 111.096 436.054 107.63C433.795 104.164 430.576 101.43 426.791 99.761L243.537 16.3476Z" stroke="#CE1C42" stroke-width="25" stroke-linecap="round" stroke-linejoin="round"/>
<path d="M12.5001 225.921C12.49 230.001 13.6503 233.999 15.8434 237.44C18.0365 240.88 21.1704 243.62 24.8734 245.334L208.34 328.747C213.87 331.251 219.87 332.546 225.94 332.546C232.01 332.546 238.01 331.251 243.54 328.747L426.58 245.547C430.356 243.85 433.557 241.091 435.792 237.606C438.027 234.121 439.199 230.061 439.167 225.921" stroke="#CE1C42" stroke-width="25" stroke-linecap="round" stroke-linejoin="round"/>
<path d="M12.5008 332.609C12.4907 336.689 13.651 340.687 15.8441 344.128C18.0372 347.569 21.1711 350.309 24.8741 352.022L208.341 435.436C213.87 437.94 219.871 439.235 225.941 439.235C232.011 439.235 238.011 437.94 243.541 435.436L426.581 352.236C430.357 350.538 433.558 347.779 435.793 344.294C438.028 340.809 439.2 336.749 439.167 332.609" stroke="#CE1C42" stroke-width="25" stroke-linecap="round" stroke-linejoin="round"/>
<line x1="91.2544" y1="73.5904" x2="173.58" y2="109.417" stroke="#CE1C42" stroke-width="28" stroke-linecap="round"/>
<line x1="279.254" y1="125.59" x2="361.58" y2="161.417" stroke="#CE1C42" stroke-width="28" stroke-linecap="round"/>
</svg>
